<?xml version="1.0" encoding="UTF-8" standalone="no"?>
<!-- Created with Inkscape (http://www.inkscape.org/) -->

<svg
   width="1600"
   height="600"
   viewBox="0 0 423.33328 158.74998"
   version="1.1"
   id="svg1"
   xmlns="http://www.w3.org/2000/svg"
   xmlns:svg="http://www.w3.org/2000/svg">
  <defs
     id="defs1" />
  <g
     id="layer2" />
  <g
     id="g166"
     transform="translate(-51.227831,131.16577)">
    <path
       id="rect1"
       style="fill:#000000;stroke-width:0.26014"
       d="m 101.13438,-130.62405 v 67.613951 c 0.13544,0.687469 0.29424,1.368392 0.4315,2.055688 0.2267,0.519253 0.50233,1.012099 0.86145,1.460892 0.44896,0.613989 0.88019,1.239019 1.25108,1.903243 0.29137,0.465835 0.63295,0.893908 1.00459,1.298629 0.48361,0.536804 0.97366,1.084248 1.26711,1.752347 0.61282,0.442338 1.20984,0.906322 1.86087,1.291911 0.72582,0.377354 1.505,0.622873 2.27841,0.879016 0.9971,0.39966 2.02843,0.691557 3.03806,1.055232 0.86402,-0.0045 1.72778,-0.01035 2.59054,0.03876 0.12217,0.007 0.24418,0.01547 0.36587,0.02532 h 298.54039 c 0.4823,-0.113565 0.96569,-0.222048 1.45469,-0.305407 0.43129,-0.0872 0.86497,-0.162942 1.29605,-0.251148 1.0392,-0.539372 2.06636,-1.103095 3.0763,-1.694987 1.39886,-0.759184 2.63031,-1.761014 3.82612,-2.799828 0.14605,-0.194293 0.27959,-0.39676 0.37827,-0.621668 0.17652,-0.412806 0.36622,-0.827534 0.4687,-1.265555 0.12496,-0.575884 0.31606,-1.129297 0.63924,-1.627291 0.26826,-0.438926 0.44962,-0.928092 0.66146,-1.395264 0.15961,-0.366684 0.34529,-0.719552 0.55811,-1.055749 v -6.152595 c -2.5e-4,-0.0018 -10e-5,-0.0039 0,-0.0057 v -0.01137 c 0,-0.0037 -10e-6,-0.0076 0,-0.01137 v -0.0124 -0.01447 c 1e-5,-0.004 -4e-5,-0.0079 0,-0.01189 v -5.16e-4 -0.330729 c -8e-5,-0.0017 -8e-5,-0.0034 0,-0.0052 1e-5,-3.13e-4 1e-5,-0.0017 0,-0.0021 v -5.17e-4 -61.799315 z" />
    <path
       style="fill:#000000;stroke-width:0.264583"
       d="m 82.720779,-116.93932 23.671231,-5.54794"
       id="path2" />
    <path
       style="fill:#000000;stroke-width:0.264583"
       d="M 101.13402,-107.08631 Z"
       id="path6" />
    <rect
       style="fill:#000000;stroke-width:0.264583"
       id="rect13"
       width="5.2579861"
       height="8.1369886"
       x="101.13403"
       y="-130.62425" />
    <path
       id="rect14"
       style="fill:#000000;stroke-width:0.270448"
       d="m 88.154298,-130.62405 v 0.29249 c 0.149327,0.0576 0.29818,0.11625 0.446484,0.17621 0.07366,0.0251 0.146766,0.0508 0.219625,0.0775 0.175176,-0.0563 0.366388,-0.0881 0.569474,-0.0925 0.634657,-0.0139 1.386508,0.24149 2.138371,0.86351 0.153611,0.077 0.294297,0.16043 0.422196,0.2496 0.290947,0.16984 0.575928,0.35194 0.857312,0.53743 0.05851,0.0352 0.11686,0.0708 0.174666,0.10697 0.147236,0.0705 0.296869,0.15547 0.448035,0.2558 0.164203,0.096 0.325674,0.19628 0.485242,0.29972 0.632296,0.11776 1.337642,0.52235 2.005562,1.30587 0.08877,0.10413 0.17547,0.20933 0.260449,0.31574 0.151428,0.0866 0.301439,0.17639 0.449068,0.2713 0.420863,0.29744 0.780499,0.64964 1.096574,1.03766 0.563949,0.60021 0.992605,1.32294 1.336352,2.12649 0.143362,0.36908 0.253291,0.74617 0.338998,1.1281 0.186143,0.62557 0.32492,1.26542 0.456302,1.90789 0.231782,0.56952 0.435642,1.1494 0.602032,1.74666 0.28377,1.0908 0.39515,2.21263 0.46405,3.33417 0.007,0.17862 0.0144,0.35727 0.0217,0.53588 h 13.16715 v -16.47651 z" />
    <path
       id="rect16"
       style="fill:#000000;stroke-width:0.270448"
       d="m 439.96275,-130.62457 -25.95913,5.2e-4 v 16.47651 h 12.99662 c -0.0107,-0.153 -0.007,-0.30633 5.2e-4,-0.4594 0.003,-0.12597 0.0249,-0.25019 0.0387,-0.37517 0.007,-0.10938 0.0175,-0.21819 0.03,-0.32712 0.009,-0.10357 0.0221,-0.20654 0.0357,-0.30954 0.0139,-0.10414 0.0197,-0.20923 0.0227,-0.31419 0.004,-0.16874 0.0315,-0.33573 0.0501,-0.50333 7.7e-4,-0.006 0.001,-0.0127 0.002,-0.0191 -10e-4,-0.0735 -10e-4,-0.14712 0,-0.22066 0.007,-0.16727 0.0157,-0.33444 0.0207,-0.50178 0.007,-0.1651 0.0358,-0.32825 0.0708,-0.48937 0.02,-0.0449 0.0331,-0.0795 0.0486,-0.10232 0.019,-0.1089 0.0479,-0.21651 0.0791,-0.32194 0.003,-0.01 0.007,-0.0195 0.01,-0.0295 -0.005,-0.11155 -0.008,-0.2233 -0.005,-0.33486 0.0121,-0.14194 0.0746,-0.2707 0.1142,-0.40566 0.0133,-0.0665 0.0303,-0.13184 0.0491,-0.19689 -0.009,-0.0124 -0.01,-0.0329 0.002,-0.0579 0.01,-0.0209 0.0168,-0.043 0.0248,-0.0646 0.0152,-0.0384 0.0293,-0.0769 0.0429,-0.11576 0.012,-0.0365 0.026,-0.0729 0.031,-0.1111 0.006,-0.0374 0.005,-0.0755 0.0124,-0.11266 0.007,-0.0311 0.0159,-0.0607 0.0274,-0.0904 0.009,-0.0251 0.0199,-0.0495 0.0279,-0.0749 0.008,-0.0248 0.0166,-0.0491 0.0279,-0.0724 0.009,-0.0257 0.0165,-0.0518 0.0274,-0.077 0.0139,-0.0368 0.0244,-0.075 0.0372,-0.11214 0.008,-0.0294 0.0179,-0.0576 0.0279,-0.0863 0.0139,-0.0355 0.0284,-0.0707 0.0429,-0.10593 0.003,-0.009 0.005,-0.0192 0.008,-0.0284 0.002,-0.007 0.004,-0.0138 0.006,-0.0207 2.6e-4,-0.001 2.6e-4,-0.003 5.2e-4,-0.004 l 5.2e-4,-5.2e-4 v -5.1e-4 -5.2e-4 h 5.1e-4 v -5.2e-4 -5.1e-4 h -5.1e-4 v -5.2e-4 h 5.1e-4 c 3.7e-4,-0.002 2.4e-4,-0.003 5.2e-4,-0.005 h 5.2e-4 c 10e-4,-0.007 0.003,-0.0117 0.005,-0.0181 0.004,-0.016 0.009,-0.034 0.014,-0.0496 0.005,-0.0148 0.01,-0.0286 0.0155,-0.0429 0.004,-0.0105 0.009,-0.0202 0.0119,-0.031 8.6e-4,-0.003 0.002,-0.005 0.004,-0.007 v -5.1e-4 h 5.2e-4 v -5.2e-4 c 10e-4,-0.005 0.002,-0.01 0.004,-0.0155 0.001,-0.005 0.003,-0.0115 0.004,-0.0165 0.002,-0.007 0.005,-0.0131 0.007,-0.0191 0.003,-0.008 0.005,-0.0142 0.008,-0.0222 0.002,-0.007 0.004,-0.0135 0.007,-0.0207 0.003,-0.007 0.005,-0.0121 0.008,-0.0191 0.002,-0.007 0.005,-0.0147 0.009,-0.0217 0.003,-0.007 0.006,-0.0131 0.009,-0.0191 0.004,-0.006 0.006,-0.0121 0.01,-0.0181 0.003,-0.006 0.006,-0.0126 0.008,-0.0186 l 0.003,-0.015 v -5.2e-4 c -0.001,-0.003 -0.001,-0.007 5.1e-4,-0.0119 0.002,-0.006 0.005,-0.0126 0.007,-0.0186 0.004,-0.009 0.007,-0.0179 0.0103,-0.0269 0.004,-0.0111 0.009,-0.0223 0.015,-0.0331 0.002,-0.004 0.003,-0.007 0.005,-0.0109 h 5.2e-4 v -5.1e-4 l 5.1e-4,-5.2e-4 v -5.2e-4 c 9.3e-4,-0.003 0.002,-0.007 0.003,-0.0103 0.003,-0.01 0.006,-0.0193 0.009,-0.0289 0.003,-0.0108 0.006,-0.0219 0.01,-0.0326 0.003,-0.007 0.006,-0.0146 0.009,-0.0217 -7.8e-4,-0.003 -0.001,-0.007 0,-0.0114 9.3e-4,-0.004 0.002,-0.009 0.004,-0.0129 v -5.2e-4 -5.1e-4 -5.2e-4 -5.2e-4 c 0.001,-0.006 0.002,-0.0121 0.003,-0.0181 0.002,-0.009 0.004,-0.0194 0.006,-0.0284 7e-5,-2.7e-4 4.4e-4,-7.7e-4 5.2e-4,-0.001 l -5.2e-4,-5.1e-4 c -10e-4,-0.003 -0.002,-0.009 5.2e-4,-0.014 0.002,-0.004 0.004,-0.008 0.006,-0.0129 0.004,-0.009 0.007,-0.0179 0.0109,-0.0269 0.004,-0.009 0.007,-0.0174 0.01,-0.0264 0.003,-0.009 0.006,-0.0179 0.0103,-0.0269 0.004,-0.009 0.008,-0.0189 0.0109,-0.0279 0.004,-0.0101 0.008,-0.0199 0.0109,-0.03 0.004,-0.0118 0.008,-0.0235 0.0119,-0.0351 0.004,-0.0115 0.009,-0.0231 0.0139,-0.0341 4e-4,-8.7e-4 6.3e-4,-0.002 10e-4,-0.003 -0.002,-0.003 -0.002,-0.008 0,-0.014 10e-4,-0.004 0.003,-0.007 0.004,-0.0114 0.002,-0.005 0.004,-0.009 0.006,-0.014 0.002,-0.004 0.004,-0.009 0.006,-0.0129 0.002,-0.004 0.004,-0.009 0.006,-0.0129 0.003,-0.006 0.005,-0.0116 0.007,-0.0176 0.002,-0.005 0.003,-0.01 0.005,-0.015 0.003,-0.005 0.005,-0.009 0.007,-0.0145 0.002,-0.004 0.004,-0.009 0.006,-0.0134 0.002,-0.004 0.004,-0.009 0.007,-0.0145 0.004,-0.007 0.007,-0.0137 0.0108,-0.0207 0.004,-0.006 0.007,-0.0126 0.0103,-0.0196 0.003,-0.005 0.006,-0.009 0.008,-0.0145 0.002,-0.004 0.004,-0.009 0.006,-0.015 0.002,-0.005 0.004,-0.009 0.005,-0.014 0.002,-0.007 0.003,-0.0131 0.007,-0.0191 l 0.009,-0.0186 c 0.004,-0.007 0.008,-0.0136 0.0119,-0.0196 l 5.2e-4,-5.2e-4 v -5.2e-4 c 9e-5,-3.4e-4 -9e-5,-5.3e-4 0,-0.001 h 5.2e-4 l 5.1e-4,-5.2e-4 5.2e-4,-5.1e-4 c 3.4e-4,-9.5e-4 8.3e-4,-0.002 10e-4,-0.003 0.004,-0.0106 0.008,-0.0207 0.0124,-0.0315 0.002,-0.005 0.004,-0.0114 0.007,-0.015 l 5.2e-4,-0.001 h 5.2e-4 l 5.1e-4,-5.1e-4 h 5.2e-4 5.2e-4 l 5.1e-4,-5.2e-4 c 5.2e-4,-1.9e-4 0.002,-4.4e-4 0.003,-5.2e-4 0.002,-1e-4 0.005,1.2e-4 0.008,0.002 0.002,-0.004 0.004,-0.007 0.006,-0.0109 0.002,-0.004 0.004,-0.006 0.007,-0.008 10e-4,-0.004 0.003,-0.009 0.004,-0.0124 0.007,-0.0252 0.02,-0.0407 0.0336,-0.0465 0.0149,-0.0373 0.0292,-0.0744 0.0439,-0.11162 0.03,-0.0763 0.0617,-0.15221 0.092,-0.22841 0.0278,-0.0609 0.0554,-0.12169 0.0858,-0.18139 0.0216,-0.04 0.0441,-0.0795 0.062,-0.12144 0.0172,-0.0417 0.0342,-0.0836 0.0496,-0.12609 0.008,-0.0243 0.0136,-0.0491 0.0186,-0.0739 0.008,-0.0373 0.0283,-0.0557 0.0465,-0.0558 0.004,-3e-5 0.007,7.6e-4 0.0124,0.003 l 0.005,-0.008 c 0.0175,-0.0307 0.0359,-0.0609 0.0517,-0.0925 0.0134,-0.0301 0.025,-0.0599 0.0398,-0.0894 0.0123,-0.0255 0.0272,-0.0505 0.0434,-0.0739 0.0124,-0.0205 0.0229,-0.0425 0.0331,-0.0641 0.0106,-0.0254 0.0185,-0.052 0.03,-0.077 0.009,-0.0184 0.0178,-0.0369 0.0248,-0.0563 0.0108,-0.0235 0.0209,-0.0466 0.0351,-0.0682 0.0162,-0.0254 0.0318,-0.0494 0.0496,-0.0739 h 5.1e-4 l 0.001,-5.1e-4 c 0.013,-0.0284 0.0252,-0.0557 0.0398,-0.0832 0.0225,-0.0407 0.0452,-0.0813 0.0687,-0.12144 0.0247,-0.0381 0.0506,-0.0751 0.077,-0.11214 0.0309,-0.041 0.0623,-0.0818 0.093,-0.12299 0.0208,-0.0291 0.0431,-0.0572 0.0579,-0.0899 0.008,-0.0185 0.0193,-0.0305 0.0305,-0.0367 0.0113,-0.0399 0.0324,-0.0832 0.0646,-0.12816 0.0998,-0.1387 0.20447,-0.2737 0.30437,-0.41237 0.0748,-0.101 0.14789,-0.20367 0.21239,-0.31161 0.0513,-0.0918 0.11478,-0.1759 0.15968,-0.2713 0.0389,-0.0846 0.0783,-0.16787 0.13023,-0.24547 0.0464,-0.0883 0.0961,-0.17421 0.15296,-0.25631 0.082,-0.10773 0.1724,-0.20907 0.2558,-0.31574 0.097,-0.1077 0.19753,-0.21171 0.29403,-0.31988 0.10059,-0.11427 0.1986,-0.23132 0.30903,-0.33641 0.14431,-0.13422 0.28708,-0.27021 0.43408,-0.40153 0.1283,-0.11676 0.25072,-0.24017 0.38396,-0.3514 0.0482,-0.028 0.0925,-0.0592 0.14211,-0.0646 0.0181,-0.0176 0.0368,-0.036 0.0558,-0.0527 0.0637,-0.0547 0.13013,-0.10721 0.19223,-0.16381 0.0761,-0.059 0.15833,-0.11038 0.24753,-0.14728 0.0789,-0.0411 0.15076,-0.0906 0.21136,-0.15658 0.0782,-0.0748 0.15676,-0.14909 0.24236,-0.21549 0.0567,-0.0419 0.11615,-0.0804 0.17674,-0.11627 0.0168,-0.0132 0.0333,-0.0266 0.0501,-0.0398 0.18791,-0.14924 0.37417,-0.30002 0.56896,-0.44028 0.21616,-0.14911 0.4334,-0.29857 0.66301,-0.42633 0.12122,-0.0696 0.24312,-0.1385 0.37052,-0.19534 0.0648,-0.0424 0.13066,-0.0825 0.19895,-0.11886 0.13002,-0.0622 0.2612,-0.12267 0.39016,-0.18707 0.12099,-0.0494 0.23612,-0.11133 0.35553,-0.16433 0.0693,-0.0303 0.1386,-0.0586 0.20878,-0.0863 0.0287,-0.015 0.0572,-0.0292 0.0863,-0.0434 0.11439,-0.0559 0.23307,-0.0999 0.35088,-0.1478 0.15029,-0.0641 0.30579,-0.11378 0.46664,-0.14418 0.10012,-0.0249 0.19875,-0.0561 0.29972,-0.077 0.0898,-0.0339 0.17928,-0.0693 0.2682,-0.10542 0.111,-0.0511 0.22541,-0.0956 0.34262,-0.13023 0.0778,-0.0223 0.15666,-0.0388 0.23667,-0.0496 0.0964,-0.0324 0.19335,-0.062 0.29353,-0.0806 0.0552,-0.0119 0.11041,-0.0232 0.16588,-0.0341 0.0818,-0.0342 0.16553,-0.0634 0.25011,-0.0899 0.0986,-0.0272 0.19889,-0.0538 0.30076,-0.0651 0.0705,-0.0224 0.1417,-0.0424 0.21291,-0.063 0.0519,-0.0128 0.10387,-0.0256 0.15606,-0.0372 0.0364,-0.014 0.0727,-0.0285 0.10904,-0.0429 0.0541,-0.0214 0.10233,-0.0303 0.14366,-0.0305 h 5.1e-4 z" />
    <g
       id="g19"
       transform="translate(52.392016,-130.62425)">
      <path
         id="path16"
         style="fill:#ffffff;stroke-width:0.377039"
         transform="matrix(0.98487529,0.17326474,0,1,0,0)"
         d="m 49.062222,51.7154 v 2.613794 c -0.002,1.127356 0.09909,2.233665 0.183645,3.343168 0.03041,0.175245 0.06003,0.350766 0.08815,0.526812 0.155772,0.958445 0.397328,1.879142 0.59501,2.819725 0.230176,0.479376 0.510042,0.923724 0.874675,1.309342 0.455855,0.535005 0.893713,1.08417 1.270299,1.683145 0.295845,0.414575 0.64267,0.782555 1.020017,1.121895 0.491036,0.451727 0.98861,0.912956 1.286565,1.529432 0.622234,0.334525 1.228421,0.693481 1.889446,0.964536 0.736966,0.249664 1.528116,0.358104 2.313403,0.478185 1.012404,0.224246 2.059585,0.334702 3.084712,0.520761 0.721078,-0.128673 1.441951,-0.258054 2.16229,-0.357079 a 14.339644,16.607321 0 0 0 -14.339532,-16.560812 14.339644,16.607321 0 0 0 -0.42868,0.0071 z" />
    </g>
    <path
       id="path18"
       style="fill:#ffffff;stroke-width:0.264583"
       d="m 438.9871,-130.35999 a 14.607532,15.691958 0 0 0 -0.35708,0.10749 c 0.0534,-0.0115 0.10703,-0.0231 0.16071,-0.0336 0.063,-0.027 0.13188,-0.0515 0.19637,-0.0739 z m -1.1653,0.33849 a 14.607532,15.691958 0 0 0 -0.76378,0.24081 c 0.0412,-0.0105 0.0831,-0.02 0.12506,-0.0279 0.0999,-0.0248 0.198,-0.0551 0.29869,-0.076 0.09,-0.0339 0.17964,-0.0693 0.26872,-0.10542 0.0237,-0.0109 0.0473,-0.0213 0.0713,-0.0315 z m -1.54668,0.55138 c -0.0689,0.0272 -0.13709,0.0556 -0.20515,0.0853 -0.0661,0.0293 -0.13121,0.0614 -0.19637,0.0925 a 14.607532,15.691958 0 0 1 0.34933,-0.15038 c 0.0173,-0.009 0.0348,-0.0182 0.0522,-0.0274 z m -0.56172,0.25063 a 14.607532,15.691958 0 0 0 -0.0145,0.006 c 0.005,-0.002 0.01,-0.004 0.0145,-0.006 z m -0.34726,0.16537 c -0.014,0.007 -0.0279,0.0135 -0.0419,0.0202 -0.0278,0.0148 -0.055,0.0301 -0.0822,0.046 a 14.607532,15.691958 0 0 1 0.12403,-0.0661 z m -0.49558,0.27285 c -0.0383,0.021 -0.0778,0.0398 -0.11576,0.0615 -0.0447,0.0248 -0.0849,0.0567 -0.12867,0.0832 a 14.607532,15.691958 0 0 1 0.24443,-0.14469 z m -0.25528,0.14779 c -0.17636,0.10657 -0.35441,0.22302 -0.52348,0.34004 -0.008,0.006 -0.0153,0.0123 -0.0233,0.0181 a 14.607532,15.691958 0 0 1 0.54674,-0.35812 z m -0.58291,0.37621 a 14.607532,15.691958 0 0 0 -1.75855,1.31878 c 0.0236,-0.0123 0.0473,-0.0219 0.0723,-0.0248 0.0181,-0.0177 0.0368,-0.0349 0.0558,-0.0517 0.0637,-0.0547 0.13013,-0.1067 0.19223,-0.1633 0.0761,-0.059 0.15833,-0.11038 0.24753,-0.14728 0.0789,-0.0411 0.15076,-0.0906 0.21136,-0.15658 0.0782,-0.0748 0.15676,-0.1496 0.24236,-0.216 0.0572,-0.0422 0.11669,-0.0802 0.17777,-0.11627 0.0164,-0.0129 0.0331,-0.0259 0.0496,-0.0388 0.16808,-0.13358 0.33658,-0.27627 0.50953,-0.40411 z m -1.75855,1.31878 c -0.0229,0.0119 -0.0456,0.0261 -0.0693,0.0398 -0.13324,0.11123 -0.25565,0.23464 -0.38395,0.3514 -0.0554,0.0495 -0.10949,0.10064 -0.16382,0.15141 a 14.607532,15.691958 0 0 1 0.61702,-0.5426 z m -1.8247,1.89653 a 14.607532,15.691958 0 0 0 -1.17977,1.82159 c 0.0176,-0.0261 0.035,-0.0524 0.0532,-0.078 0.0309,-0.041 0.0623,-0.0818 0.093,-0.12299 0.0208,-0.0291 0.0431,-0.0577 0.0579,-0.0904 0.009,-0.0204 0.0217,-0.0327 0.0341,-0.0382 0.0113,-0.0395 0.0317,-0.0822 0.0636,-0.1266 0.0998,-0.1387 0.20448,-0.27371 0.30438,-0.41238 0.0748,-0.101 0.14789,-0.20367 0.21239,-0.31161 0.0513,-0.0918 0.11478,-0.1759 0.15968,-0.2713 0.0389,-0.0846 0.0783,-0.16786 0.13022,-0.24546 0.0225,-0.0429 0.0499,-0.0829 0.0744,-0.12454 z m -1.17977,1.82159 c -0.008,0.0116 -0.0162,0.0229 -0.0238,0.0346 -0.0235,0.0401 -0.0462,0.0807 -0.0687,0.12144 -0.003,0.005 -0.005,0.0101 -0.007,0.015 a 14.607532,15.691958 0 0 1 0.0997,-0.17105 z m -0.0997,0.17105 a 14.607532,15.691958 0 0 0 -0.0847,0.14521 c 0.0159,-0.025 0.0322,-0.0498 0.0496,-0.0739 l 5.1e-4,-5.1e-4 c 0.0109,-0.0239 0.0226,-0.0474 0.0346,-0.0708 z m -0.10387,0.17983 a 14.607532,15.691958 0 0 0 -0.28112,0.50695 c 0.009,-0.009 0.0184,-0.0139 0.0274,-0.014 0.004,-4e-5 0.008,0.001 0.0114,0.003 10e-4,-0.003 0.003,-0.005 0.004,-0.008 0.0175,-0.0307 0.0355,-0.0614 0.0512,-0.093 0.0134,-0.0301 0.025,-0.0609 0.0398,-0.0904 0.0123,-0.0255 0.0272,-0.0489 0.0434,-0.0724 0.0124,-0.0205 0.0224,-0.042 0.0326,-0.0636 0.0106,-0.0254 0.0185,-0.052 0.03,-0.077 0.009,-0.0184 0.0178,-0.0369 0.0248,-0.0563 0.005,-0.0118 0.0109,-0.0235 0.0165,-0.0351 z m -0.28629,0.54984 -0.004,5.2e-4 -0.003,5.1e-4 -0.001,10e-4 -0.0103,0.001 a 14.607532,15.691958 0 0 0 -0.49609,1.11156 c 0.004,-0.007 0.007,-0.0137 0.0109,-0.0207 0.004,-0.006 0.007,-0.0126 0.0103,-0.0196 0.003,-0.005 0.006,-0.009 0.008,-0.0145 0.002,-0.004 0.004,-0.009 0.006,-0.0145 0.002,-0.005 0.004,-0.009 0.005,-0.0139 0.002,-0.007 0.003,-0.0131 0.007,-0.0191 0.003,-0.006 0.006,-0.0126 0.009,-0.0186 0.004,-0.007 0.008,-0.0136 0.0119,-0.0196 l 5.2e-4,-5.2e-4 v -5.1e-4 l 5.2e-4,-5.2e-4 5.1e-4,-5.2e-4 h 5.2e-4 v -5.1e-4 h 5.2e-4 v -5.2e-4 c 3.4e-4,-9.5e-4 8.1e-4,-0.002 0.001,-0.003 0.004,-0.0106 0.008,-0.0207 0.0124,-0.0315 0.002,-0.005 0.004,-0.0119 0.007,-0.0155 l 5.2e-4,-5.1e-4 5.1e-4,-5.2e-4 h 5.2e-4 5.2e-4 l 5.1e-4,-5.2e-4 5.2e-4,-5.1e-4 h 5.2e-4 c 4.5e-4,-10e-6 0.002,-3e-5 0.003,0 0.002,-10e-5 0.005,1e-4 0.008,0.002 0.002,-0.004 0.004,-0.007 0.006,-0.0109 h -5.2e-4 c 0.003,-0.006 0.007,-0.008 0.0114,-0.009 h 5.2e-4 5.1e-4 5.2e-4 5.2e-4 l 5.2e-4,5.1e-4 c 0.002,-0.005 0.003,-0.0102 0.005,-0.0155 0.007,-0.0251 0.02,-0.0402 0.0336,-0.046 0.0149,-0.0373 0.0292,-0.0743 0.0439,-0.11162 0.03,-0.0763 0.0617,-0.15221 0.092,-0.22841 0.0278,-0.0609 0.0559,-0.12169 0.0863,-0.18139 0.0216,-0.04 0.0441,-0.0795 0.062,-0.12144 0.0172,-0.0417 0.0337,-0.0836 0.0491,-0.12609 0.008,-0.023 0.0132,-0.0473 0.0181,-0.0708 z m 0.0176,0.15555 v 5.1e-4 5.2e-4 5.2e-4 l -5.2e-4,5.1e-4 v 5.2e-4 5.2e-4 h 5.2e-4 v -5.2e-4 l 5.2e-4,-5.2e-4 5.1e-4,-5.1e-4 h 5.2e-4 v -5.2e-4 -5.2e-4 z m -0.01,0.0253 c -0.002,0.006 -0.005,0.0125 -0.007,0.0186 h 5.1e-4 c 0.002,-0.006 0.005,-0.0122 0.007,-0.0186 z m -0.54415,0.98288 a 14.607532,15.691958 0 0 0 -0.0155,0.0388 c 0.002,-0.004 0.004,-0.009 0.006,-0.0129 0.003,-0.006 0.005,-0.0116 0.007,-0.0176 0.001,-0.003 0.002,-0.006 0.003,-0.008 z m -0.0341,0.0827 c 0,3.4e-4 10e-6,7.7e-4 0,0.001 a 14.607532,15.691958 0 0 1 10e-4,-0.001 z m -0.001,0.002 v 5.2e-4 l 5.1e-4,5.2e-4 a 14.607532,15.691958 0 0 0 5.2e-4,-5.2e-4 v -5.2e-4 z m 0.002,0.002 -10e-4,5.2e-4 a 14.607532,15.691958 0 0 0 -0.0548,0.16175 c 0.003,-0.009 0.006,-0.0179 0.0103,-0.0269 0.004,-0.009 0.008,-0.0189 0.0109,-0.0279 0.004,-0.0101 0.008,-0.0199 0.0109,-0.03 0.004,-0.0118 0.008,-0.0235 0.0119,-0.0351 0.004,-0.0115 0.009,-0.0231 0.0139,-0.0341 3e-4,-6.5e-4 7.4e-4,-10e-4 10e-4,-0.002 h -5.2e-4 v -5.1e-4 l -5.2e-4,-5.2e-4 -5.1e-4,-5.2e-4 -5.2e-4,-5.1e-4 v -5.2e-4 l -5.2e-4,-5.2e-4 c -4.2e-4,-8.9e-4 -2.1e-4,-0.002 -5.1e-4,-0.003 z m -0.016,0.16382 v 5.1e-4 5.2e-4 h 5.1e-4 v -5.2e-4 -5.1e-4 z m -0.0682,0.0811 c -2.6e-4,10e-4 -8.5e-4,0.003 -10e-4,0.004 a 14.607532,15.691958 0 0 1 0.002,-0.003 l -5.2e-4,-5.1e-4 a 14.607532,15.691958 0 0 1 0,-5.2e-4 z m -0.003,0.005 a 14.607532,15.691958 0 0 0 -0.41031,1.20302 c 0.009,-0.0228 0.0186,-0.0451 0.0258,-0.0682 0.008,-0.0248 0.0171,-0.0485 0.0284,-0.0718 0.009,-0.0257 0.016,-0.0518 0.0269,-0.077 0.0139,-0.0368 0.0249,-0.075 0.0377,-0.11214 0.003,-0.0116 0.008,-0.0227 0.0114,-0.0341 1.7e-4,-0.002 10e-4,-0.004 0.002,-0.006 l 5.2e-4,-5.2e-4 v -5.2e-4 -5.1e-4 l 5.2e-4,-5.2e-4 c 0.005,-0.0147 0.009,-0.0292 0.0145,-0.0439 0.006,-0.0152 0.012,-0.0297 0.0181,-0.045 v -5.2e-4 l 5.2e-4,-5.2e-4 v -5.1e-4 -5.2e-4 c 0.003,-0.008 8.8e-4,-0.004 0.004,-0.0134 0.004,-0.0131 0.008,-0.0256 0.0134,-0.0377 v -5.2e-4 l 5.2e-4,-0.001 c 7.2e-4,-0.001 0.002,-0.002 0.003,-0.004 0.003,-0.01 0.005,-0.0202 0.008,-0.03 0.001,-0.004 0.003,-0.008 0.004,-0.0114 4.2e-4,-0.002 10e-4,-0.004 10e-4,-0.006 5e-4,-0.002 5.6e-4,-0.004 0.002,-0.007 0.002,-0.01 0.004,-0.0203 0.007,-0.03 0.004,-0.016 0.009,-0.0314 0.014,-0.047 0.005,-0.0148 0.01,-0.0291 0.0155,-0.0434 0.004,-0.0105 0.009,-0.0197 0.0119,-0.0305 l 5.2e-4,-5.2e-4 v -5.1e-4 l 5.1e-4,-5.2e-4 v -5.2e-4 l 5.2e-4,-5.1e-4 v -5.2e-4 -5.2e-4 h 5.2e-4 v -5.1e-4 -5.2e-4 l 5.1e-4,-5.2e-4 v -5.1e-4 c 8e-5,-2.2e-4 8.2e-4,-0.002 10e-4,-0.003 h 5.2e-4 v -5.2e-4 h 5.1e-4 l 5.2e-4,-5.2e-4 5.2e-4,-5.2e-4 v -5.1e-4 h 5.1e-4 v -5.2e-4 c 10e-4,-0.005 0.002,-0.01 0.004,-0.015 0.001,-0.005 0.003,-0.0115 0.004,-0.0165 0.002,-0.007 0.005,-0.0126 0.007,-0.0186 0.003,-0.008 0.005,-0.0147 0.008,-0.0227 0.002,-0.007 0.004,-0.0136 0.007,-0.0207 0.003,-0.007 0.005,-0.0121 0.008,-0.0191 0.002,-0.007 0.005,-0.0147 0.009,-0.0217 0.003,-0.007 0.006,-0.0136 0.009,-0.0196 0.004,-0.006 0.006,-0.0116 0.0103,-0.0176 0.003,-0.006 0.006,-0.0126 0.008,-0.0186 l 0.002,-0.009 -5.1e-4,-5.2e-4 -5.2e-4,-10e-4 c -0.002,-0.003 -0.003,-0.008 -5.2e-4,-0.015 0.002,-0.006 0.005,-0.0126 0.007,-0.0186 0.004,-0.009 0.007,-0.0184 0.0103,-0.0274 0.004,-0.0111 0.009,-0.0228 0.0145,-0.0336 l 5.1e-4,-5.2e-4 h 5.2e-4 v -5.1e-4 -5.2e-4 c 10e-4,-0.004 0.003,-0.008 0.004,-0.0124 0.004,-0.0132 0.008,-0.0268 0.0119,-0.0398 0.003,-0.0108 0.006,-0.022 0.0103,-0.0326 0.003,-0.008 0.006,-0.015 0.009,-0.0222 -7.8e-4,-0.003 -10e-4,-0.007 0,-0.0114 0.001,-0.005 0.002,-0.009 0.004,-0.0134 9.9e-4,-0.006 0.002,-0.0121 0.003,-0.0181 0.002,-0.007 0.003,-0.0138 0.004,-0.0207 z m -0.44338,1.31361 a 14.607532,15.691958 0 0 0 -0.11111,0.38912 c 0.01,-0.0205 0.017,-0.0418 0.0248,-0.063 0.0152,-0.0384 0.0303,-0.0769 0.0439,-0.11576 0.012,-0.0365 0.025,-0.0729 0.03,-0.1111 0.005,-0.0329 0.007,-0.0663 0.0124,-0.0992 z m -0.11162,0.39119 c -0.005,0.0114 -0.008,0.0214 -0.008,0.0305 a 14.607532,15.691958 0 0 1 0.008,-0.0305 z m -0.008,0.0455 a 14.607532,15.691958 0 0 0 -0.11472,0.43408 c 0.0237,-0.0755 0.0532,-0.14936 0.0754,-0.22531 0.0131,-0.0655 0.0296,-0.13022 0.0481,-0.1943 -0.006,-0.007 -0.008,-0.01 -0.009,-0.0145 z m -0.11472,0.43408 c -0.0154,0.049 -0.0272,0.0987 -0.0341,0.14986 a 14.607532,15.691958 0 0 1 0.0341,-0.14986 z m -0.0341,0.14986 a 14.607532,15.691958 0 0 0 -0.42736,3.55379 14.607532,15.691958 0 0 0 0.01,0.59014 c -1.5e-4,-0.0881 0.003,-0.1765 0.007,-0.26458 0.003,-0.12597 0.0265,-0.25019 0.0403,-0.37517 0.007,-0.10938 0.018,-0.21818 0.0305,-0.32711 0.009,-0.10357 0.0236,-0.20654 0.0372,-0.30954 0.0139,-0.10414 0.0187,-0.20924 0.0217,-0.3142 0.004,-0.16874 0.0305,-0.33573 0.0491,-0.50333 7.7e-4,-0.006 10e-4,-0.0127 0.002,-0.0191 -0.001,-0.0735 -0.001,-0.14711 0,-0.22065 0.007,-0.16727 0.0162,-0.33444 0.0212,-0.50178 0.007,-0.1651 0.0358,-0.32826 0.0708,-0.48938 0.02,-0.0449 0.0331,-0.0795 0.0486,-0.10232 0.019,-0.1089 0.0489,-0.21651 0.0801,-0.32194 0.003,-0.01 0.007,-0.0196 0.0103,-0.0295 -0.005,-0.11155 -0.008,-0.2233 -0.005,-0.33486 8.8e-4,-0.0102 0.002,-0.0204 0.004,-0.0305 z m -0.40618,4.408 c 3e-4,0.004 3.6e-4,0.008 0.001,0.0119 a 14.607532,15.691958 0 0 1 -5.2e-4,-0.0119 z m 0.001,0.0155 c 3.8e-4,0.005 10e-4,0.01 0.002,0.0145 a 14.607532,15.691958 0 0 1 -10e-4,-0.0145 h -5.2e-4 z m 0.002,0.0145 a 14.607532,15.691958 0 0 0 0.0527,0.71934 c -10e-6,-0.0186 0,-0.0372 0,-0.0558 -0.004,-0.0862 -0.003,-0.1721 10e-4,-0.25787 -0.002,-0.0103 -0.003,-0.0206 -0.005,-0.031 -0.0243,-0.12379 -0.0389,-0.24903 -0.0491,-0.37466 z" />
    <path
       style="fill:#ffffff;stroke-width:0.26787"
       d="m 88.210497,-98.751588 c -6.18e-4,0.063 -0.0014,0.12611 -0.0021,0.189135 a 14.607532,16.084257 0 0 0 0.348299,-0.04909 c -0.11482,-0.04097 -0.230645,-0.08995 -0.346232,-0.140043 z"
       id="path38" />
    <path
       style="fill:#ffffff;stroke-width:0.26787"
       d="m 81.047628,-100.84552 c 0.0018,0.053 0.0039,0.10615 0.0057,0.15917 7.86e-4,0.0249 0.0013,0.05 0.0021,0.0749 0.0012,-0.0767 0.0025,-0.15378 0.0036,-0.23048 -0.0037,-10e-4 -0.0076,-0.002 -0.01137,-0.004 z"
       id="path37" />
    <path
       id="ellipse19"
       style="fill:#ffffff;stroke-width:0.26787"
       d="m 87.456666,-130.5915 c 0.384112,0.13848 0.76592,0.28323 1.144116,0.43615 0.07366,0.0251 0.146766,0.0508 0.219625,0.0775 0.175176,-0.0563 0.366388,-0.0881 0.569474,-0.0925 0.634743,-0.0139 1.386923,0.2413 2.138888,0.86351 0.153282,0.0769 0.293434,0.16056 0.421162,0.2496 0.290978,0.16985 0.576416,0.35192 0.857829,0.53743 0.05851,0.0352 0.11686,0.0708 0.174666,0.10697 0.147236,0.0705 0.296869,0.15547 0.448035,0.2558 0.164203,0.096 0.325674,0.19628 0.485242,0.29972 0.632296,0.11776 1.337642,0.52235 2.005562,1.30587 0.08877,0.10413 0.17547,0.20933 0.260449,0.31574 0.151428,0.0866 0.301439,0.17639 0.449068,0.2713 0.245623,0.17359 0.470539,0.36601 0.677995,0.57309 a 14.607532,16.084257 0 0 0 -9.852111,-5.2002 z m 11.614277,7.80935 c 0.140068,0.36367 0.247467,0.73491 0.331763,1.11104 0.185863,0.62487 0.324548,1.26411 0.455786,1.90583 0.231868,0.56977 0.436108,1.15025 0.602548,1.74769 0.28377,1.0908 0.39515,2.21263 0.46405,3.33417 0.0315,0.79469 0.071,1.58952 0.0672,2.38331 a 14.607532,16.084257 0 0 0 0.14211,-2.23965 14.607532,16.084257 0 0 0 -2.063437,-8.24239 z" />
    <path
       style="fill:#ffffff;stroke-width:0.374177"
       d="m 434.44358,-46.700698 c -0.0328,0.0021 -0.0663,0.0042 -0.0992,0.0057 8.8e-4,0.08013 0.002,0.160665 0.003,0.240787 0.0321,-0.08179 0.064,-0.164742 0.0961,-0.246496 z"
       id="path8" />
    <path
       style="fill:#ffffff;stroke-width:0.374177"
       d="m 425.77383,-48.79101 c -0.0304,-5.54e-4 -0.0944,0.01798 -0.10232,0.04393 -0.0111,0.03621 -0.0227,0.07238 -0.0347,0.109029 0.0528,-0.04364 0.10275,-0.08998 0.14935,-0.139526 l 5.2e-4,-5.15e-4 5.1e-4,-5.18e-4 v -5.17e-4 l 5.2e-4,1e-6 v -5.16e-4 l 5.1e-4,-10e-7 v -5.17e-4 l 5.3e-4,-5.16e-4 v -5.17e-4 l 5.1e-4,-5.17e-4 v -5.17e-4 l 5.2e-4,-5.16e-4 v -5.16e-4 -5.17e-4 -5.17e-4 -5.17e-4 -5.16e-4 -5.17e-4 l -5.2e-4,-5.18e-4 -5.1e-4,-5.16e-4 v -5.17e-4 l -5.3e-4,-10e-7 c -0.003,-0.0018 -0.008,-0.0035 -0.0145,-0.0036 z"
       id="path7" />
    <path
       style="fill:#ffffff;stroke-width:0.374177"
       d="m 427.00166,-68.389811 v 5.17e-4 5.17e-4 0.0186 c 0,0.0071 2.8e-4,0.01406 5.1e-4,0.02119 v -0.04082 z"
       id="path5" />
    <path
       style="fill:#ffffff;stroke-width:0.374177"
       d="m 425.13924,-71.569461 a 17.172026,13.658332 69.811211 0 0 -12.27883,14.305068 17.172026,13.658332 69.811211 0 0 0.96531,6.204272 c 0.74872,-0.17546 1.49426,-0.365185 2.25309,-0.494544 0.43129,-0.0872 0.86497,-0.162941 1.29605,-0.251147 1.0392,-0.539372 2.06636,-1.103095 3.0763,-1.694987 1.39885,-0.759184 2.6303,-1.761016 3.82612,-2.799829 0.14605,-0.194293 0.27958,-0.39676 0.37827,-0.621667 0.17652,-0.412806 0.36623,-0.827535 0.4687,-1.265557 0.12496,-0.575883 0.31606,-1.129296 0.63924,-1.627289 0.26827,-0.438926 0.44962,-0.928092 0.66146,-1.395265 0.17656,-0.405628 0.38502,-0.794226 0.62683,-1.162203 0.0605,-0.190107 0.1188,-0.38065 0.17519,-0.572057 -0.004,-0.480285 -0.004,-0.960581 -0.004,-1.440704 -1.7e-4,-0.224602 8e-5,-0.449273 0,-0.673861 -0.10838,0.05483 -0.12198,-0.0038 -0.139,-0.06821 -0.0114,-0.04255 -0.0116,-0.04479 -0.0207,-0.0894 -0.002,-0.01691 -0.003,-0.03411 -0.005,-0.05121 -0.0352,-1.12e-4 -0.0687,-0.03642 -0.0615,-0.105413 0.0144,-0.13603 0.0303,-0.272157 0.0449,-0.408252 v -0.0098 -0.218592 -0.245979 -0.24443 c -0.002,-0.08392 0.005,-0.166856 0.0129,-0.250117 v -0.02532 -0.267684 -0.2682 -0.111621 c -0.0281,-0.008 -0.0527,-0.04052 -0.0527,-0.09715 v -0.112138 -0.139526 -0.127641 -0.107487 -0.109037 -0.112138 -0.05013 l -5.1e-4,10e-7 -5.2e-4,5.16e-4 h -5.1e-4 l -5.2e-4,-10e-7 -5.2e-4,-5.16e-4 h -5.2e-4 -5.1e-4 v -5.16e-4 l -5.1e-4,-5.16e-4 -5.2e-4,-1e-6 -5.2e-4,-5.16e-4 v -5.17e-4 c -1.1e-4,-3.39e-4 -4.6e-4,-9.29e-4 -5.2e-4,-0.001 -3.6e-4,-9.23e-4 -9.1e-4,-0.0023 -9.8e-4,-0.0036 -9.9e-4,-0.0061 -0.002,-0.01201 -0.002,-0.01807 -2e-4,-0.0093 -7.3e-4,-0.0186 -9.9e-4,-0.0279 -8e-5,-0.01284 -7.2e-4,-0.02592 -9.8e-4,-0.03875 v -0.02946 -5.16e-4 l -5.2e-4,-5.16e-4 -5.2e-4,-1e-6 h -5.1e-4 l -5.1e-4,-5.15e-4 -5.2e-4,-5.18e-4 -5.2e-4,-5.16e-4 -5.2e-4,-5.18e-4 c -10e-5,-2.03e-4 -4.3e-4,-0.0013 -5.1e-4,-0.0016 -2.6e-4,-9.69e-4 -5.6e-4,-0.0023 -5.2e-4,-0.0036 5e-5,-0.0012 4.8e-4,-0.0028 5.2e-4,-0.0041 1e-5,-4.56e-4 -10e-6,-0.0011 0,-0.0016 l -5.2e-4,-10e-7 -5.1e-4,10e-7 -5.3e-4,-10e-7 v -5.17e-4 l -5.1e-4,10e-7 v -5.17e-4 l -5.2e-4,-10e-7 v -5.16e-4 l -5.1e-4,-5.16e-4 c -9e-5,-2.71e-4 -4.7e-4,-0.0012 -5.2e-4,-0.0016 -5.3e-4,-0.0023 -6.5e-4,-0.0048 -5.2e-4,-0.0072 v -0.01137 c 0,-0.0037 -1e-5,-0.0076 0,-0.01137 v -0.0124 -0.01447 c 10e-6,-0.004 -4e-5,-0.0079 0,-0.01189 4e-5,-0.0041 3.9e-4,-0.0083 5.2e-4,-0.0124 4e-5,-0.0015 -3e-5,-0.0031 0,-0.0046 v -5.17e-4 -5.17e-4 -5.16e-4 -0.0062 -0.0088 -0.0098 -0.0088 c 0,-0.003 -1e-5,-0.0063 0,-0.0093 v -0.0088 c 0,-0.0032 -1e-5,-0.0066 0,-0.0098 10e-6,-0.003 -4e-5,-0.0058 0,-0.0088 5e-5,-0.0037 3.3e-4,-0.0077 5.2e-4,-0.01137 0,-0.0039 9.4e-4,-0.0075 9.8e-4,-0.01138 v -5.17e-4 -5.17e-4 c 1e-5,-3.6e-4 0,-7.31e-4 0,-0.001 v -0.0015 -5.17e-4 -0.01344 -0.0155 -0.01344 -0.01705 -0.0021 -5.16e-4 -5.17e-4 -5.17e-4 c -5.1e-4,-0.0059 -9.8e-4,-0.01156 -9.8e-4,-0.01756 v -0.01447 -0.01292 c 0,-0.0013 2.2e-4,-0.0027 5.1e-4,-0.0036 v -5.17e-4 l 5.2e-4,-5.16e-4 v -5.16e-4 l 5.1e-4,-5.18e-4 5.3e-4,-5.16e-4 c -1e-5,-0.0034 0,-0.0069 0,-0.01033 -1e-5,-0.0043 0,-0.0086 0,-0.01292 l -5.3e-4,-5.18e-4 -5.1e-4,-5.16e-4 -5.2e-4,-5.17e-4 v -5.17e-4 l -5.1e-4,-5.16e-4 -5.2e-4,-5.18e-4 c -2.7e-4,-9.62e-4 -5.3e-4,-0.0029 -5.2e-4,-0.0041 3e-5,-0.0025 4.6e-4,-0.0047 5.2e-4,-0.0072 1.5e-4,-0.0058 7e-5,-0.01177 5.2e-4,-0.01757 2.6e-4,-0.0036 8.8e-4,-0.0072 9.8e-4,-0.01086 -10e-6,-5.16e-4 1e-5,-0.001 0,-0.0015 1e-5,-3.27e-4 -10e-6,-7.13e-4 0,-10e-4 -3e-5,-0.001 1e-5,-0.0021 0,-0.0031 -6e-5,-0.0026 -4.3e-4,-0.0051 -5.2e-4,-0.0078 -1.6e-4,-0.0052 -4.9e-4,-0.01031 -9.8e-4,-0.0155 -4.3e-4,-0.0038 -7e-4,-0.0076 -5.2e-4,-0.01137 10e-6,-3.19e-4 10e-6,-0.0012 0,-0.0016 v -5.17e-4 c 6e-5,-2.84e-4 4.4e-4,-0.0013 5.2e-4,-0.0015 l 5.2e-4,-5.16e-4 v -5.17e-4 l 5.1e-4,-5.18e-4 5.2e-4,-5.15e-4 v -5.17e-4 l 5.1e-4,-5.18e-4 5.3e-4,-5.16e-4 h 5.1e-4 l 5.2e-4,-5.16e-4 5.1e-4,-10e-7 5.2e-4,10e-7 5.2e-4,-10e-7 5.2e-4,10e-7 5.1e-4,-10e-7 v -5.17e-4 h 5.1e-4 5.2e-4 l 5.2e-4,5.16e-4 5.2e-4,10e-7 h 5.1e-4 v 5.16e-4 l 5.2e-4,10e-7 5.1e-4,5.16e-4 5.3e-4,5.18e-4 v 5.17e-4 l 5.1e-4,5.16e-4 c 3.4e-4,8.7e-4 9.5e-4,0.0023 9.8e-4,0.0036 v 5.17e-4 5.16e-4 c 2.4e-4,0.0011 3.3e-4,0.0029 5.3e-4,0.0052 l 5.1e-4,0.0052 c 0.002,-4.5e-5 0.004,1.33e-4 0.005,4.8e-5 1.7e-4,-0.0024 4e-5,-0.0053 0,-0.0078 l -0.002,1.7e-5 c -1e-5,-4.79e-4 2e-5,-0.0011 0,-0.0015 v -5.16e-4 -5.17e-4 -5.17e-4 c 9e-5,-2.18e-4 4.4e-4,-0.0014 5.2e-4,-0.0015 l 5.2e-4,-5.18e-4 5.2e-4,-5.15e-4 v -5.17e-4 l 5.1e-4,-10e-7 5.2e-4,-5.16e-4 5.1e-4,-5.17e-4 c 0,-0.01533 0,-0.03067 0,-0.04599 7e-5,-0.0615 7e-5,-0.122985 5.3e-4,-0.184484 0,-0.04048 9.8e-4,-0.07998 0.002,-0.120424 -0.002,-0.0088 -0.003,-0.01914 -0.003,-0.02952 v -0.06977 -0.186035 -0.172083 -0.185001 -0.233061 -0.160714 -0.130224 -0.118339 c 0,-0.0038 3.1e-4,-0.0073 5.2e-4,-0.01085 -0.008,-0.08396 -0.0136,-0.167671 -0.0108,-0.252178 v -0.269751 -0.331763 -0.05788 a 17.172026,13.658332 69.811211 0 0 -0.009,-0.0015 17.172026,13.658332 69.811211 0 0 -1.84278,-0.182418 z"
       id="ellipse20" />
    <path
       id="path20"
       style="fill:#000000;stroke-width:0.396519"
       d="m 115.25703,-79.887103 a 14.122761,14.318907 0 0 0 -14.12265,14.31902 14.122761,14.318907 0 0 0 1.40767,6.232177 c 0.40758,0.563492 0.79713,1.138102 1.13636,1.74563 0.29137,0.465835 0.63295,0.893908 1.00459,1.298629 0.35674,0.395979 0.71669,0.797841 0.99891,1.249536 a 14.122761,14.318907 0 0 0 3.26957,2.286681 c 0.37604,0.137743 0.75763,0.261112 1.13791,0.387057 0.80608,0.323098 1.63443,0.57559 2.45566,0.852661 a 14.122761,14.318907 0 0 0 1.34721,0.199471 c 0.60886,-2.43e-4 1.21766,0.0072 1.82573,0.04186 0.0577,0.0033 0.11552,0.0069 0.17311,0.01085 a 14.122761,14.318907 0 0 0 13.48858,-14.304552 14.122761,14.318907 0 0 0 -14.12265,-14.31902 z" />
    <rect
       style="fill:#000000;stroke-width:0.264583"
       id="rect20"
       width="7.736536"
       height="8.9128008"
       x="101.13403"
       y="-75.179337" />
    <path
       style="fill:#000000;stroke-width:0.264583"
       d="m 419.24657,-75.843619 v 8.912633 h 7.73648 v -1.487764 c -2.9e-4,-0.0019 -1.1e-4,-0.0038 0,-0.0057 v -0.01137 c 0,-0.0037 -10e-6,-0.0076 0,-0.01137 v -0.0124 -0.01447 c 1e-5,-0.004 -4e-5,-0.0079 0,-0.01188 2e-5,-0.0021 -1.1e-4,-0.0041 0,-0.0062 v -0.325045 c -8e-5,-0.0017 -8e-5,-0.0034 0,-0.0052 2e-5,-6.26e-4 -8e-5,-0.0015 0,-0.0021 v -7.019209 z"
       id="rect21" />
    <path
       style="fill:#000000;stroke-width:0.396519"
       d="m 412.8604,-79.887299 a 14.122761,14.318907 0 0 0 -14.12265,14.319021 14.122761,14.318907 0 0 0 14.12265,14.319021 14.122761,14.318907 0 0 0 6.10144,-1.405082 c 0.50017,-0.275729 0.99673,-0.557773 1.48931,-0.84646 0.0241,-0.01307 0.0478,-0.02606 0.0718,-0.03927 a 14.122761,14.318907 0 0 0 4.73873,-5.176945 c 0.11885,-0.385121 0.27902,-0.754872 0.50178,-1.098124 0.0395,-0.06471 0.077,-0.13074 0.11317,-0.197404 a 14.122761,14.318907 0 0 0 1.10639,-5.555732 14.122761,14.318907 0 0 0 -14.12265,-14.319021 z"
       id="ellipse21" />
    <path
       style="fill:#000000;stroke-width:0.300227"
       d="m 426.93534,-67.846695 c -0.01,0.16681 0.007,0.331947 0.0132,0.497709 0.004,0.102865 -0.009,0.206577 0,0.308922 0.005,0.05649 0.018,0.115676 0.0267,0.171624 0.0169,0.109432 0,0.324436 0,0.446219 0,0.09034 0.009,0.185415 0,0.2746 -0.004,0.0468 -0.0206,0.09076 -0.0267,0.137298 -0.003,0.02258 0.008,0.04818 0,0.06865 -0.006,0.01448 -0.0212,0.01987 -0.0266,0.03433 -0.0124,0.03202 0.0124,0.0881 0,0.120132 -0.006,0.01449 -0.0212,0.01987 -0.0267,0.03433 -0.0154,0.03928 0.0106,0.113397 0,0.154461 -0.0305,0.117684 0.0161,0.267341 -0.0267,0.37757"
       id="path58" />
  </g>
  <circle
     id="path1"
     style="fill:#ffffff;stroke:#000000;stroke-width:0.264583"
     cx="61.840561"
     cy="13.132166"
     r="0.031803481" />
  <circle
     id="path3"
     style="fill:#ffffff;stroke:#000000;stroke-width:0.264583"
     cx="89.77626"
     cy="21.250233"
     r="0.031803481" />
</svg>
